<svg width="16" height="16" viewBox="0 0 16 16" fill="none" xmlns="http://www.w3.org/2000/svg">
<rect width="16" height="16" rx="4" fill="#6142FE"/>
<path d="M11.4932 5.23341L7.03986 9.68675L4.4532 7.10008C4.32829 6.97591 4.15932 6.90622 3.9832 6.90622C3.80707 6.90622 3.63811 6.97591 3.5132 7.10008C3.38903 7.22499 3.31934 7.39395 3.31934 7.57008C3.31934 7.7462 3.38903 7.91517 3.5132 8.04008L6.5732 11.1001C6.69811 11.2242 6.86707 11.2939 7.0432 11.2939C7.21932 11.2939 7.38829 11.2242 7.5132 11.1001L12.4332 6.18008C12.4957 6.1181 12.5453 6.04437 12.5791 5.96313C12.613 5.88189 12.6304 5.79475 12.6304 5.70675C12.6304 5.61874 12.613 5.5316 12.5791 5.45036C12.5453 5.36912 12.4957 5.29539 12.4332 5.23341C12.3083 5.10925 12.1393 5.03955 11.9632 5.03955C11.7871 5.03955 11.6181 5.10925 11.4932 5.23341Z" fill="white"/>
</svg>
