<svg width="45" height="31" viewBox="0 0 45 31" fill="none" xmlns="http://www.w3.org/2000/svg">
<g clip-path="url(#clip0_117_2288)">
<path fill-rule="evenodd" clip-rule="evenodd" d="M14.3828 8.16616C14.0495 8.16616 13.7298 8.29858 13.4941 8.53428C13.2584 8.76998 13.126 9.08965 13.126 9.42298C13.126 9.75631 13.2584 10.076 13.4941 10.3117C13.7298 10.5474 14.0495 10.6798 14.3828 10.6798C14.7161 10.6798 15.0358 10.5474 15.2715 10.3117C15.5072 10.076 15.6396 9.75631 15.6396 9.42298C15.6396 9.08965 15.5072 8.76998 15.2715 8.53428C15.0358 8.29858 14.7161 8.16616 14.3828 8.16616ZM12.2881 9.42298C12.2876 8.90352 12.4801 8.40239 12.8283 8.01688C13.1764 7.63137 13.6554 7.38899 14.1723 7.33678C14.6891 7.28458 15.2069 7.42627 15.6251 7.73437C16.0434 8.04246 16.3322 8.49497 16.4356 9.00404H30.7215V9.84193H16.4356C16.3322 10.351 16.0434 10.8035 15.6251 11.1116C15.2069 11.4197 14.6891 11.5614 14.1723 11.5092C13.6554 11.457 13.1764 11.2146 12.8283 10.8291C12.4801 10.4436 12.2876 9.94245 12.2881 9.42298ZM14.3828 16.545C14.0495 16.545 13.7298 16.6774 13.4941 16.9131C13.2584 17.1488 13.126 17.4685 13.126 17.8018C13.126 18.1351 13.2584 18.4548 13.4941 18.6905C13.7298 18.9262 14.0495 19.0586 14.3828 19.0586C14.7161 19.0586 15.0358 18.9262 15.2715 18.6905C15.5072 18.4548 15.6396 18.1351 15.6396 17.8018C15.6396 17.4685 15.5072 17.1488 15.2715 16.9131C15.0358 16.6774 14.7161 16.545 14.3828 16.545ZM12.2881 17.8018C12.2876 17.2823 12.4801 16.7812 12.8283 16.3957C13.1764 16.0102 13.6554 15.7678 14.1723 15.7156C14.6891 15.6634 15.2069 15.8051 15.6251 16.1132C16.0434 16.4213 16.3322 16.8738 16.4356 17.3829H27.4118C27.5157 16.8742 27.8046 16.4223 28.2227 16.1146C28.6408 15.807 29.1583 15.6655 29.6748 15.7177C30.1912 15.7699 30.6699 16.012 31.0181 16.397C31.3662 16.7821 31.5589 17.2827 31.5589 17.8018C31.5589 18.3209 31.3662 18.8215 31.0181 19.2066C30.6699 19.5916 30.1912 19.8337 29.6748 19.8859C29.1583 19.9381 28.6408 19.7966 28.2227 19.489C27.8046 19.1813 27.5157 18.7294 27.4118 18.2207H16.4356C16.3322 18.7298 16.0434 19.1823 15.6251 19.4904C15.2069 19.7985 14.6891 19.9402 14.1723 19.888C13.6554 19.8358 13.1764 19.5934 12.8283 19.2079C12.4801 18.8224 12.2876 18.3213 12.2881 17.8018ZM29.4647 16.545C29.1313 16.545 28.8116 16.6774 28.5759 16.9131C28.3402 17.1488 28.2078 17.4685 28.2078 17.8018C28.2078 18.1351 28.3402 18.4548 28.5759 18.6905C28.8116 18.9262 29.1313 19.0586 29.4647 19.0586C29.798 19.0586 30.1177 18.9262 30.3534 18.6905C30.5891 18.4548 30.7215 18.1351 30.7215 17.8018C30.7215 17.4685 30.5891 17.1488 30.3534 16.9131C30.1177 16.6774 29.798 16.545 29.4647 16.545ZM14.3828 21.5723C14.0495 21.5723 13.7298 21.7047 13.4941 21.9404C13.2584 22.1761 13.126 22.4958 13.126 22.8291C13.126 23.1624 13.2584 23.4821 13.4941 23.7178C13.7298 23.9535 14.0495 24.0859 14.3828 24.0859C14.7161 24.0859 15.0358 23.9535 15.2715 23.7178C15.5072 23.4821 15.6396 23.1624 15.6396 22.8291C15.6396 22.4958 15.5072 22.1761 15.2715 21.9404C15.0358 21.7047 14.7161 21.5723 14.3828 21.5723ZM12.2881 22.8291C12.2876 22.3096 12.4801 21.8085 12.8283 21.423C13.1764 21.0375 13.6554 20.7951 14.1723 20.7429C14.6891 20.6907 15.2069 20.8324 15.6251 21.1405C16.0434 21.4486 16.3322 21.9011 16.4356 22.4101H30.7215V23.248H16.4356C16.3322 23.7571 16.0434 24.2096 15.6251 24.5177C15.2069 24.8258 14.6891 24.9675 14.1723 24.9153C13.6554 24.8631 13.1764 24.6207 12.8283 24.2352C12.4801 23.8497 12.2876 23.3486 12.2881 22.8291Z" fill="white"/>
<path fill-rule="evenodd" clip-rule="evenodd" d="M29.3806 11.4675L28.216 11.9954L27.8724 11.2329L29.0371 10.7051L29.3806 11.4675ZM26.0291 12.9757L24.8645 13.5036L24.5209 12.7411L25.6856 12.2133L26.0291 12.9757ZM22.6776 14.4839L21.5045 15.0118L21.1694 14.2493L22.3341 13.7215L22.6776 14.4839ZM19.3261 15.9921L18.153 16.52L17.8179 15.7575L18.9825 15.2296L19.3261 15.9921Z" fill="white"/>
</g>
<defs>
<clipPath id="clip0_117_2288">
<rect width="43.6854" height="29.9326" fill="white" transform="translate(0.5 0.740967)"/>
</clipPath>
</defs>
</svg>
