<svg width="45" height="31" viewBox="0 0 45 31" fill="none" xmlns="http://www.w3.org/2000/svg">
<g clip-path="url(#clip0_117_2338)">
<path d="M22.3427 11.9501C21.8983 11.9501 21.472 12.1267 21.1578 12.441C20.8435 12.7552 20.6669 13.1815 20.6669 13.6259V22.8426H15.6396V13.6259C15.6396 9.92582 18.6426 6.92285 22.3427 6.92285C26.0428 6.92285 29.0457 9.92582 29.0457 13.6259V22.8426H24.0185V13.6259C24.0185 13.1815 23.8419 12.7552 23.5276 12.441C23.2134 12.1267 22.7871 11.9501 22.3427 11.9501ZM19.8291 13.6259C19.8291 12.9592 20.0939 12.3199 20.5653 11.8485C21.0367 11.3771 21.676 11.1123 22.3427 11.1123C23.0094 11.1123 23.6487 11.3771 24.1201 11.8485C24.5915 12.3199 24.8563 12.9592 24.8563 13.6259V22.0047H28.2079V13.6259C28.2079 10.3883 25.5803 7.76073 22.3427 7.76073C19.1051 7.76073 16.4775 10.3883 16.4775 13.6259V22.0047H19.8291V13.6259Z" fill="white"/>
<path fill-rule="evenodd" clip-rule="evenodd" d="M16.0586 18.6533H20.248V19.4912H16.0586V18.6533ZM24.4374 18.6533H28.6268V19.4912H24.4374V18.6533Z" fill="white"/>
</g>
<defs>
<clipPath id="clip0_117_2338">
<rect width="43.6854" height="29.9326" fill="white" transform="translate(0.5 0.335449)"/>
</clipPath>
</defs>
</svg>
