<svg width="45" height="31" viewBox="0 0 45 31" fill="none" xmlns="http://www.w3.org/2000/svg">
<g clip-path="url(#clip0_117_2278)">
<path d="M27.7463 11.1707L29.5084 18.8055L30.3245 18.617L28.5624 10.9822L27.7463 11.1707ZM22.2951 15.7841L28.6889 19.8528L29.1389 19.1457L22.745 15.0769L22.2951 15.7841ZM22.6604 13.8612L26.6923 10.8372L26.1895 10.1669L22.1576 13.1908L22.6604 13.8612ZM19.7957 15.6308L15.84 21.2814L16.5262 21.7615L20.4819 16.1109L19.7957 15.6308ZM15.9171 21.3635L17.8526 10.3973L17.0273 10.2516L15.0918 21.2177L15.9171 21.3635ZM18.1878 10.2901L19.8593 13.216L20.5866 12.8004L18.915 9.87451L18.1878 10.2901Z" fill="white"/>
<path d="M17.7343 9.90963C18.4281 9.90963 18.9911 9.34657 18.9911 8.65281C18.9911 7.95904 18.4281 7.39599 17.7343 7.39599C17.0406 7.39599 16.4775 7.95904 16.4775 8.65281C16.4775 9.34657 17.0406 9.90963 17.7343 9.90963ZM17.7343 10.7475C16.5772 10.7475 15.6396 9.80992 15.6396 8.65281C15.6396 7.49569 16.5772 6.55811 17.7343 6.55811C18.8914 6.55811 19.829 7.49569 19.829 8.65281C19.829 9.80992 18.8914 10.7475 17.7343 10.7475ZM15.2207 24.1536C15.9144 24.1536 16.4775 23.5906 16.4775 22.8968C16.4775 22.203 15.9144 21.64 15.2207 21.64C14.5269 21.64 13.9639 22.203 13.9639 22.8968C13.9639 23.5906 14.5269 24.1536 15.2207 24.1536ZM15.2207 24.9915C14.0636 24.9915 13.126 24.0539 13.126 22.8968C13.126 21.7397 14.0636 20.8021 15.2207 20.8021C16.3778 20.8021 17.3154 21.7397 17.3154 22.8968C17.3154 24.0539 16.3778 24.9915 15.2207 24.9915ZM21.0858 15.7748C21.7796 15.7748 22.3427 15.2117 22.3427 14.518C22.3427 13.8242 21.7796 13.2612 21.0858 13.2612C20.3921 13.2612 19.829 13.8242 19.829 14.518C19.829 15.2117 20.3921 15.7748 21.0858 15.7748ZM21.0858 16.6127C19.9287 16.6127 18.9911 15.6751 18.9911 14.518C18.9911 13.3609 19.9287 12.4233 21.0858 12.4233C22.243 12.4233 23.1806 13.3609 23.1806 14.518C23.1806 15.6751 22.243 16.6127 21.0858 16.6127ZM27.7889 10.7475C28.4827 10.7475 29.0457 10.1845 29.0457 9.49069C29.0457 8.79692 28.4827 8.23387 27.7889 8.23387C27.0951 8.23387 26.5321 8.79692 26.5321 9.49069C26.5321 10.1845 27.0951 10.7475 27.7889 10.7475ZM27.7889 11.5854C26.6318 11.5854 25.6942 10.6478 25.6942 9.49069C25.6942 8.33358 26.6318 7.39599 27.7889 7.39599C28.946 7.39599 29.8836 8.33358 29.8836 9.49069C29.8836 10.6478 28.946 11.5854 27.7889 11.5854ZM30.3025 21.64C30.9963 21.64 31.5594 21.0769 31.5594 20.3831C31.5594 19.6894 30.9963 19.1263 30.3025 19.1263C29.6088 19.1263 29.0457 19.6894 29.0457 20.3831C29.0457 21.0769 29.6088 21.64 30.3025 21.64ZM30.3025 22.4779C29.1454 22.4779 28.2078 21.5403 28.2078 20.3831C28.2078 19.226 29.1454 18.2884 30.3025 18.2884C31.4597 18.2884 32.3972 19.226 32.3972 20.3831C32.3972 21.5403 31.4597 22.4779 30.3025 22.4779Z" fill="white"/>
</g>
<defs>
<clipPath id="clip0_117_2278">
<rect width="43.6854" height="29.9326" fill="white" transform="translate(0.5 0.80835)"/>
</clipPath>
</defs>
</svg>
