<svg width="45" height="30" viewBox="0 0 45 30" fill="none" xmlns="http://www.w3.org/2000/svg">
<path fill-rule="evenodd" clip-rule="evenodd" d="M22.3427 8.27294C21.676 8.27294 21.0367 8.53777 20.5653 9.00917C20.0939 9.48057 19.8291 10.1199 19.8291 10.7866V13.3002H26.951C27.5066 13.3002 28.0394 13.5209 28.4322 13.9138C28.8251 14.3066 29.0457 14.8394 29.0457 15.3949V21.2601C29.0457 21.5352 28.9916 21.8076 28.8863 22.0617C28.781 22.3158 28.6267 22.5468 28.4322 22.7413C28.2377 22.9358 28.0068 23.0901 27.7527 23.1954C27.4985 23.3006 27.2261 23.3548 26.951 23.3548H17.7344C17.4593 23.3548 17.1869 23.3006 16.9327 23.1954C16.6786 23.0901 16.4477 22.9358 16.2532 22.7413C16.0587 22.5468 15.9044 22.3158 15.7991 22.0617C15.6938 21.8076 15.6396 21.5352 15.6396 21.2601V15.3949C15.6396 14.8394 15.8603 14.3066 16.2532 13.9138C16.646 13.5209 17.1788 13.3002 17.7344 13.3002H18.9912V10.7866C18.9912 9.8977 19.3443 9.04523 19.9728 8.4167C20.6013 7.78816 21.4538 7.43506 22.3427 7.43506C23.2316 7.43506 24.0841 7.78816 24.7126 8.4167C25.3411 9.04523 25.6942 9.8977 25.6942 10.7866H24.8563C24.8563 10.1199 24.5915 9.48057 24.1201 9.00917C23.6487 8.53777 23.0094 8.27294 22.3427 8.27294ZM21.5048 17.4896C21.5048 17.2674 21.5931 17.0543 21.7502 16.8972C21.9074 16.74 22.1205 16.6518 22.3427 16.6518C22.5649 16.6518 22.778 16.74 22.9352 16.8972C23.0923 17.0543 23.1806 17.2674 23.1806 17.4896V19.1654C23.1806 19.3876 23.0923 19.6007 22.9352 19.7579C22.778 19.915 22.5649 20.0033 22.3427 20.0033C22.1205 20.0033 21.9074 19.915 21.7502 19.7579C21.5931 19.6007 21.5048 19.3876 21.5048 19.1654V17.4896ZM16.4775 15.3949C16.4775 14.6995 17.0389 14.1381 17.7344 14.1381H26.951C27.6465 14.1381 28.2079 14.6995 28.2079 15.3949V21.2601C28.2079 21.9555 27.6465 22.5169 26.951 22.5169H17.7344C17.401 22.5169 17.0813 22.3845 16.8456 22.1488C16.6099 21.9131 16.4775 21.5934 16.4775 21.2601V15.3949Z" fill="white"/>
</svg>
