<svg width="45" height="31" viewBox="0 0 45 31" fill="none" xmlns="http://www.w3.org/2000/svg">
<g clip-path="url(#clip0_117_2371)">
<path fill-rule="evenodd" clip-rule="evenodd" d="M20.248 8.81176C20.1369 8.81176 20.0303 8.8559 19.9517 8.93446C19.8732 9.01303 19.829 9.11959 19.829 9.2307V10.4875H24.8563V9.2307C24.8563 9.11959 24.8122 9.01303 24.7336 8.93446C24.6551 8.8559 24.5485 8.81176 24.4374 8.81176H20.248ZM25.6942 10.4875V9.2307C25.6942 8.53526 25.1328 7.97388 24.4374 7.97388H20.248C19.5525 7.97388 18.9912 8.53526 18.9912 9.2307V10.4875H15.2207C15.1096 10.4875 15.003 10.5317 14.9245 10.6102C14.8459 10.6888 14.8018 10.7954 14.8018 10.9065C14.8018 11.0176 14.8459 11.1241 14.9245 11.2027C15.003 11.2813 15.1096 11.3254 15.2207 11.3254H16.4775V21.7989C16.4775 22.074 16.5317 22.3464 16.637 22.6005C16.7422 22.8547 16.8965 23.0856 17.091 23.2801C17.2856 23.4746 17.5165 23.6289 17.7706 23.7342C18.0248 23.8394 18.2971 23.8936 18.5722 23.8936H26.1132C26.3882 23.8936 26.6606 23.8394 26.9148 23.7342C27.1689 23.6289 27.3998 23.4746 27.5943 23.2801C27.7888 23.0856 27.9431 22.8547 28.0484 22.6005C28.1537 22.3464 28.2079 22.074 28.2079 21.7989V11.3254H29.4647C29.5758 11.3254 29.6823 11.2813 29.7609 11.2027C29.8395 11.1241 29.8836 11.0176 29.8836 10.9065C29.8836 10.7954 29.8395 10.6888 29.7609 10.6102C29.6823 10.5317 29.5758 10.4875 29.4647 10.4875H25.6942ZM27.37 11.3254H17.3154V21.7989C17.3154 22.4944 17.8768 23.0557 18.5722 23.0557H26.1132C26.8086 23.0557 27.37 22.4944 27.37 21.7989V11.3254ZM20.248 13.839C20.4826 13.839 20.6669 14.0234 20.6669 14.258V20.1232C20.6669 20.2343 20.6228 20.3408 20.5442 20.4194C20.4657 20.498 20.3591 20.5421 20.248 20.5421C20.1369 20.5421 20.0303 20.498 19.9517 20.4194C19.8732 20.3408 19.829 20.2343 19.829 20.1232V14.258C19.829 14.0234 20.0134 13.839 20.248 13.839ZM24.8563 14.258C24.8563 14.1469 24.8122 14.0403 24.7336 13.9618C24.6551 13.8832 24.5485 13.839 24.4374 13.839C24.3263 13.839 24.2197 13.8832 24.1412 13.9618C24.0626 14.0403 24.0185 14.1469 24.0185 14.258V20.1232C24.0185 20.2343 24.0626 20.3408 24.1412 20.4194C24.2197 20.498 24.3263 20.5421 24.4374 20.5421C24.5485 20.5421 24.6551 20.498 24.7336 20.4194C24.8122 20.3408 24.8563 20.2343 24.8563 20.1232V14.258Z" fill="white"/>
</g>
<defs>
<clipPath id="clip0_117_2371">
<rect width="43.6854" height="29.9326" fill="white" transform="translate(0.5 0.54834)"/>
</clipPath>
</defs>
</svg>
