<svg width="45" height="31" viewBox="0 0 45 31" fill="none" xmlns="http://www.w3.org/2000/svg">
<path d="M29.8854 22.7751C29.8838 22.7751 29.8838 18.5882 29.8838 18.5882L24.0169 18.5857C24.0186 18.5857 24.0186 22.7726 24.0186 22.7726L29.8854 22.7751ZM23.1807 18.5882C23.1804 18.4781 23.2017 18.369 23.2436 18.2672C23.2855 18.1653 23.347 18.0727 23.4246 17.9947C23.5023 17.9166 23.5946 17.8547 23.6962 17.8123C23.7978 17.7699 23.9068 17.748 24.0169 17.7478H29.8854C30.3471 17.7478 30.7216 18.1148 30.7216 18.5882V22.7726C30.722 22.8827 30.7006 22.9918 30.6587 23.0936C30.6169 23.1954 30.5554 23.288 30.4777 23.3661C30.4 23.4441 30.3078 23.5061 30.2061 23.5485C30.1045 23.5908 29.9955 23.6128 29.8854 23.613H24.0169C23.9066 23.6135 23.7973 23.5921 23.6953 23.5501C23.5933 23.508 23.5007 23.446 23.4229 23.3678C23.3451 23.2896 23.2836 23.1967 23.242 23.0945C23.2004 22.9923 23.1796 22.8829 23.1807 22.7726V18.5882Z" fill="white"/>
<path fill-rule="evenodd" clip-rule="evenodd" d="M26.5322 20.2615H27.3701V21.9372H26.5322V20.2615Z" fill="white"/>
<path d="M29.0459 15.6533C29.0459 15.0977 28.8252 14.565 28.4323 14.1721C28.0395 13.7793 27.5067 13.5586 26.9511 13.5586C26.3956 13.5586 25.8628 13.7793 25.47 14.1721C25.0771 14.565 24.8564 15.0977 24.8564 15.6533V18.1669H25.6943V15.6533C25.6943 15.32 25.8267 15.0003 26.0624 14.7646C26.2981 14.5289 26.6178 14.3965 26.9511 14.3965C27.2845 14.3965 27.6042 14.5289 27.8399 14.7646C28.0756 15.0003 28.208 15.32 28.208 15.6533V16.0722H29.0459V15.6533Z" fill="white"/>
<path d="M13.126 15.8267C13.126 15.6045 13.2143 15.3914 13.3715 15.2343L22.7105 5.89525C22.8272 5.77846 22.9658 5.68581 23.1183 5.6226C23.2709 5.55939 23.4344 5.52686 23.5995 5.52686C23.7646 5.52686 23.9281 5.55939 24.0806 5.6226C24.2332 5.68581 24.3718 5.77846 24.4885 5.89525L26.6544 8.06118C26.7712 8.1779 26.8638 8.31648 26.9271 8.46902C26.9903 8.62156 27.0228 8.78505 27.0228 8.95017C27.0228 9.11529 26.9903 9.27878 26.9271 9.43132C26.8638 9.58386 26.7712 9.72245 26.6544 9.83916L17.3154 19.1782C17.1583 19.3353 16.9452 19.4236 16.723 19.4237H13.9639C13.7416 19.4237 13.5285 19.3354 13.3714 19.1783C13.2143 19.0211 13.126 18.808 13.126 18.5858V15.8267ZM13.9639 15.8267V18.5858H16.723L26.062 9.24678C26.101 9.20786 26.132 9.16163 26.1531 9.11074C26.1742 9.05984 26.1851 9.00528 26.1851 8.95017C26.1851 8.89507 26.1742 8.8405 26.1531 8.7896C26.132 8.73871 26.101 8.69248 26.062 8.65356L23.8961 6.48764C23.8572 6.44862 23.811 6.41767 23.7601 6.39655C23.7092 6.37543 23.6546 6.36456 23.5995 6.36456C23.5444 6.36456 23.4898 6.37543 23.4389 6.39655C23.388 6.41767 23.3418 6.44862 23.3029 6.48764L13.9639 15.8267Z" fill="white"/>
<path d="M21.6269 7.571L24.9784 10.9225L25.5716 10.3293L22.2201 6.97778L21.6269 7.571ZM14.0859 15.1119L17.4375 18.4635L18.0307 17.8702L14.6792 14.5187L14.0859 15.1119Z" fill="white"/>
<path d="M23.3026 8.65356L15.7617 16.1945L16.3549 16.7877L23.8959 9.24678L23.3026 8.65356Z" fill="white"/>
</svg>
