<svg width="45" height="31" viewBox="0 0 45 31" fill="none" xmlns="http://www.w3.org/2000/svg">
<g clip-path="url(#clip0_117_2362)">
<path fill-rule="evenodd" clip-rule="evenodd" d="M14.8016 13.1936L14.4581 12.5903L14.433 12.5568L14.4581 12.5233C14.9429 11.6464 15.5308 10.8307 16.2093 10.0934C17.441 8.75282 19.2257 7.47924 21.5047 7.47924C23.7921 7.47924 25.5684 8.7612 26.8085 10.0934C27.484 10.8312 28.069 11.6469 28.5513 12.5233L28.5764 12.5568L28.5513 12.5903C28.0665 13.4672 27.4786 14.2829 26.8001 15.0202C25.5684 16.3608 23.7837 17.6344 21.5047 17.6344C19.2173 17.6344 17.441 16.3524 16.2009 15.0202C15.6825 14.455 15.217 13.8436 14.81 13.1936H14.8016ZM29.4227 12.3725L29.0456 12.5568L29.4227 12.7411L29.4143 12.7579C29.3749 12.8374 29.333 12.9156 29.2886 12.9925C28.7716 13.9298 28.1444 14.8018 27.4201 15.5899C26.113 17.0059 24.1189 18.4722 21.5047 18.4722C18.8905 18.4722 16.8963 17.0059 15.5893 15.5899C14.8049 14.7361 14.1346 13.7842 13.5951 12.7579V12.7411H13.5867L13.9638 12.5568L13.5867 12.3725L13.5951 12.3557C13.6347 12.2763 13.6766 12.1981 13.7208 12.1211C14.2377 11.1838 14.865 10.3118 15.5893 9.52367C16.8963 8.10765 18.8905 6.64136 21.5047 6.64136C24.1189 6.64136 26.113 8.10765 27.4201 9.52367C28.2044 10.3775 28.8748 11.3295 29.4143 12.3557V12.3725H29.4227ZM29.0456 12.5568L29.4227 12.3725L29.5065 12.5568L29.4227 12.7411L29.0456 12.5568ZM13.5867 12.3725L13.9638 12.5568L13.5867 12.7411L13.5029 12.5568L13.5867 12.3725ZM19.2843 12.5568C19.2887 12.27 19.3496 11.9869 19.4637 11.7237C19.5777 11.4605 19.7427 11.2224 19.949 11.0231C20.1553 10.8238 20.3989 10.6672 20.6659 10.5623C20.9328 10.4574 21.2179 10.4063 21.5047 10.4118C21.7915 10.4063 22.0765 10.4574 22.3435 10.5623C22.6105 10.6672 22.8541 10.8238 23.0604 11.0231C23.2667 11.2224 23.4316 11.4605 23.5457 11.7237C23.6598 11.9869 23.7207 12.27 23.7251 12.5568C23.7207 12.8436 23.6598 13.1267 23.5457 13.3899C23.4316 13.6531 23.2667 13.8912 23.0604 14.0905C22.8541 14.2898 22.6105 14.4464 22.3435 14.5513C22.0765 14.6562 21.7915 14.7073 21.5047 14.7018C21.2179 14.7073 20.9328 14.6562 20.6659 14.5513C20.3989 14.4464 20.1553 14.2898 19.949 14.0905C19.7427 13.8912 19.5777 13.6531 19.4637 13.3899C19.3496 13.1267 19.2887 12.8436 19.2843 12.5568ZM21.5047 9.57394C21.1079 9.56841 20.7139 9.64123 20.3452 9.78824C19.9766 9.93526 19.6406 10.1536 19.3565 10.4307C19.0724 10.7078 18.8458 11.0382 18.6896 11.403C18.5334 11.7679 18.4508 12.16 18.4464 12.5568C18.4508 12.9536 18.5334 13.3457 18.6896 13.7106C18.8458 14.0754 19.0724 14.4058 19.3565 14.6829C19.6406 14.96 19.9766 15.1783 20.3452 15.3254C20.7139 15.4724 21.1079 15.5452 21.5047 15.5397C23.1805 15.5397 24.563 14.2158 24.563 12.5568C24.5586 12.16 24.476 11.7679 24.3198 11.403C24.1636 11.0382 23.937 10.7078 23.6529 10.4307C23.3688 10.1536 23.0328 9.93526 22.6642 9.78824C22.2955 9.64123 21.9015 9.56841 21.5047 9.57394ZM28.0821 19.6285L28.7524 18.9582L29.3389 19.5531L28.677 20.2234C28.6002 20.3017 28.5572 20.407 28.5572 20.5167C28.5572 20.6263 28.6002 20.7316 28.677 20.8099L29.1713 21.3043C29.3389 21.4719 29.5903 21.4719 29.7578 21.3043L31.266 19.7961L31.8525 20.391L30.3527 21.8992C30.1171 22.1345 29.7976 22.2667 29.4646 22.2667C29.1315 22.2667 28.8121 22.1345 28.5764 21.8992L28.0821 21.4048C27.8467 21.1692 27.7145 20.8497 27.7145 20.5167C27.7145 20.1836 27.8467 19.8642 28.0821 19.6285ZM24.4373 22.1924L24.144 21.8992C24.1226 21.9167 24.1029 21.9364 24.0854 21.9578L23.2475 23.2146L22.4096 24.4715C22.3668 24.5348 22.3421 24.6087 22.3383 24.6851C22.3344 24.7614 22.3516 24.8374 22.3878 24.9047C22.4241 24.9721 22.4781 25.0282 22.5439 25.067C22.6098 25.1058 22.6851 25.1259 22.7615 25.125H26.113C26.6621 25.1084 27.1827 24.8767 27.5626 24.4798C27.9594 24.1 28.1911 23.5794 28.2077 23.0303C28.1911 22.4812 27.9594 21.9607 27.5626 21.5808C27.1827 21.184 26.6621 20.9523 26.113 20.9356C25.6151 20.9616 25.1352 21.1303 24.7305 21.4216C24.5253 21.5588 24.3319 21.7129 24.1524 21.8824V21.8908H24.144L24.4373 22.1924ZM24.7641 22.4606L23.9513 23.6839L23.5407 24.2871H26.113C26.3979 24.2871 26.7163 24.1447 26.9677 23.885C27.219 23.6336 27.3699 23.3152 27.3699 23.0303C27.3699 22.7454 27.2274 22.427 26.9677 22.1757C26.7163 21.9243 26.3979 21.7735 26.113 21.7735C25.8198 21.7735 25.4846 21.9243 25.1914 22.1254C25.0406 22.2261 24.8978 22.3382 24.7641 22.4606Z" fill="white"/>
</g>
<defs>
<clipPath id="clip0_117_2362">
<rect width="43.6854" height="29.9326" fill="white" transform="translate(0.5 0.942139)"/>
</clipPath>
</defs>
</svg>
