<svg width="45" height="31" viewBox="0 0 45 31" fill="none" xmlns="http://www.w3.org/2000/svg">
<g clip-path="url(#clip0_117_2265)">
<path d="M13.126 8.30126H31.5594V7.46338H13.126V8.30126Z" fill="white"/>
<path d="M13.126 18.3559H31.5594V17.5181H13.126V18.3559Z" fill="white"/>
<path d="M13.126 13.3286H29.4647V12.4907H13.126V13.3286Z" fill="white"/>
<path d="M15.2207 23.383H31.5594V22.5452H15.2207V23.383Z" fill="white"/>
<path d="M13.5449 24.221C14.2387 24.221 14.8017 23.658 14.8017 22.9642C14.8017 22.2705 14.2387 21.7074 13.5449 21.7074C12.8511 21.7074 12.2881 22.2705 12.2881 22.9642C12.2881 23.658 12.8511 24.221 13.5449 24.221ZM13.5449 25.0589C12.3878 25.0589 11.4502 24.1213 11.4502 22.9642C11.4502 21.8071 12.3878 20.8695 13.5449 20.8695C14.702 20.8695 15.6396 21.8071 15.6396 22.9642C15.6396 24.1213 14.702 25.0589 13.5449 25.0589ZM31.1404 14.1665C31.8342 14.1665 32.3972 13.6034 32.3972 12.9096C32.3972 12.2159 31.8342 11.6528 31.1404 11.6528C30.4466 11.6528 29.8836 12.2159 29.8836 12.9096C29.8836 13.6034 30.4466 14.1665 31.1404 14.1665ZM31.1404 15.0043C29.9833 15.0043 29.0457 14.0668 29.0457 12.9096C29.0457 11.7525 29.9833 10.8149 31.1404 10.8149C32.2975 10.8149 33.2351 11.7525 33.2351 12.9096C33.2351 14.0668 32.2975 15.0043 31.1404 15.0043Z" fill="white"/>
</g>
<defs>
<clipPath id="clip0_117_2265">
<rect width="43.6854" height="29.9326" fill="white" transform="translate(0.5 0.875732)"/>
</clipPath>
</defs>
</svg>
