<svg width="45" height="31" viewBox="0 0 45 31" fill="none" xmlns="http://www.w3.org/2000/svg">
<path d="M12.7149 19.7024C12.4792 19.9381 12.3468 20.2577 12.3468 20.5911C12.3468 20.9244 12.4792 21.2441 12.7149 21.4798L15.9735 24.7384C16.2092 24.9741 16.5289 25.1065 16.8622 25.1065C17.1955 25.1065 17.5152 24.9741 17.7509 24.7384L31.9702 10.519C32.2059 10.2833 32.3383 9.96367 32.3383 9.63034C32.3383 9.29701 32.2059 8.97733 31.9702 8.74163L28.7116 5.48304C28.4759 5.24734 28.1562 5.11492 27.8229 5.11492C27.4896 5.11492 27.1699 5.24733 26.9342 5.48303L12.7149 19.7024ZM13.3074 20.2948L15.0848 18.5174L16.5659 19.9986L17.1584 19.4061L15.6772 17.9249L17.6028 15.9994L19.9134 18.31L20.5059 17.7176L18.1952 15.4069L20.1208 13.4814L21.602 14.9626L22.1944 14.3701L20.7132 12.8889L22.6388 10.9634L24.9494 13.274L25.5419 12.6816L23.2313 10.3709L25.1568 8.44539L26.638 9.92657L27.2304 9.3341L25.7493 7.85292L27.5267 6.07551C27.6052 5.99694 27.7118 5.9528 27.8229 5.9528C27.934 5.9528 28.0406 5.99694 28.1191 6.07551L31.3777 9.3341C31.4563 9.41267 31.5004 9.51923 31.5004 9.63034C31.5004 9.74145 31.4563 9.84801 31.3777 9.92657L17.1584 24.1459C17.0799 24.2245 16.9733 24.2686 16.8622 24.2686C16.7511 24.2686 16.6445 24.2245 16.5659 24.1459L13.3074 20.8873C13.2288 20.8087 13.1846 20.7022 13.1846 20.5911C13.1846 20.48 13.2288 20.3734 13.3074 20.2948Z" fill="white"/>
</svg>
