<svg width="45" height="30" viewBox="0 0 45 30" fill="none" xmlns="http://www.w3.org/2000/svg">
<path d="M25.3975 18.6916L28.749 22.0431L29.3422 21.4499L25.9907 18.0984L25.3975 18.6916Z" fill="white"/>
<path d="M21.0859 20.9088C19.197 20.9088 17.3855 20.1584 16.0499 18.8228C14.7142 17.4872 13.9639 15.6757 13.9639 13.7868C13.9639 11.8979 14.7142 10.0864 16.0499 8.75078C17.3855 7.41515 19.197 6.66479 21.0859 6.66479C22.9747 6.66479 24.7862 7.41515 26.1219 8.75078C27.4575 10.0864 28.2078 11.8979 28.2078 13.7868C28.2078 15.6757 27.4575 17.4872 26.1219 18.8228C24.7862 20.1584 22.9747 20.9088 21.0859 20.9088ZM21.0859 20.0709C22.7525 20.0709 24.3509 19.4088 25.5294 18.2303C26.7079 17.0518 27.37 15.4534 27.37 13.7868C27.37 12.1201 26.7079 10.5217 25.5294 9.34325C24.3509 8.16475 22.7525 7.50268 21.0859 7.50268C19.4192 7.50268 17.8208 8.16475 16.6423 9.34325C15.4638 10.5217 14.8017 12.1201 14.8017 13.7868C14.8017 15.4534 15.4638 17.0518 16.6423 18.2303C17.8208 19.4088 19.4192 20.0709 21.0859 20.0709Z" fill="white"/>
<path d="M18.1533 14.2058H24.0185V13.3679H18.1533V14.2058Z" fill="white"/>
<path d="M21.5049 16.7194V10.8542H20.667V16.7194H21.5049Z" fill="white"/>
</svg>
