<svg width="45" height="31" viewBox="0 0 45 31" fill="none" xmlns="http://www.w3.org/2000/svg">
<g clip-path="url(#clip0_117_2315)">
<path d="M14.0058 15.5048C14.0058 13.2937 14.8841 11.1732 16.4476 9.60969C18.0111 8.04621 20.1316 7.16786 22.3427 7.16786C24.5538 7.16786 26.6743 8.04621 28.2378 9.60969C29.8012 11.1732 30.6796 13.2937 30.6796 15.5048C30.6796 17.7159 29.8012 19.8364 28.2378 21.3999C26.6743 22.9633 24.5538 23.8417 22.3427 23.8417C20.1316 23.8417 18.0111 22.9633 16.4476 21.3999C14.8841 19.8364 14.0058 17.7159 14.0058 15.5048ZM22.3427 6.28809C19.8983 6.28809 17.5539 7.25913 15.8255 8.98759C14.097 10.7161 13.126 13.0604 13.126 15.5048C13.126 17.9492 14.097 20.2935 15.8255 22.022C17.5539 23.7504 19.8983 24.7215 22.3427 24.7215C24.7871 24.7215 27.1314 23.7504 28.8599 22.022C30.5883 20.2935 31.5594 17.9492 31.5594 15.5048C31.5594 13.0604 30.5883 10.7161 28.8599 8.98759C27.1314 7.25913 24.7871 6.28809 22.3427 6.28809ZM19.829 17.2057C19.9335 17.1679 20.0486 17.1732 20.1492 17.2204C20.2497 17.2675 20.3275 17.3526 20.3653 17.457C20.5086 17.8672 20.7759 18.2226 21.1302 18.4741C21.4845 18.7255 21.9082 18.8606 22.3427 18.8606C22.7771 18.8606 23.2008 18.7255 23.5551 18.4741C23.9094 18.2226 24.1767 17.8672 24.3201 17.457C24.3601 17.3556 24.438 17.2737 24.5374 17.2288C24.6368 17.1839 24.7498 17.1796 24.8523 17.2167C24.9549 17.2538 25.0389 17.3294 25.0866 17.4275C25.1343 17.5256 25.1419 17.6384 25.1077 17.7419C24.9056 18.3138 24.5312 18.8089 24.036 19.1591C23.5408 19.5093 22.9492 19.6974 22.3427 19.6974C21.7362 19.6974 21.1446 19.5093 20.6494 19.1591C20.1542 18.8089 19.7798 18.3138 19.5777 17.7419C19.5399 17.6375 19.5452 17.5223 19.5923 17.4218C19.6395 17.3212 19.7246 17.2435 19.829 17.2057ZM20.248 13.4101C20.0257 13.4101 19.8126 13.4984 19.6555 13.6555C19.4984 13.8126 19.4101 14.0257 19.4101 14.248C19.4101 14.4702 19.4984 14.6833 19.6555 14.8404C19.8126 14.9976 20.0257 15.0858 20.248 15.0858C20.4702 15.0858 20.6833 14.9976 20.8404 14.8404C20.9976 14.6833 21.0858 14.4702 21.0858 14.248C21.0858 14.0257 20.9976 13.8126 20.8404 13.6555C20.6833 13.4984 20.4702 13.4101 20.248 13.4101ZM24.4374 13.4101C24.2152 13.4101 24.002 13.4984 23.8449 13.6555C23.6878 13.8126 23.5995 14.0257 23.5995 14.248C23.5995 14.4702 23.6878 14.6833 23.8449 14.8404C24.002 14.9976 24.2152 15.0858 24.4374 15.0858C24.6596 15.0858 24.8727 14.9976 25.0298 14.8404C25.187 14.6833 25.2753 14.4702 25.2753 14.248C25.2753 14.0257 25.187 13.8126 25.0298 13.6555C24.8727 13.4984 24.6596 13.4101 24.4374 13.4101Z" fill="white"/>
</g>
<defs>
<clipPath id="clip0_117_2315">
<rect width="43.6854" height="29.9326" fill="white" transform="translate(0.5 0.538574)"/>
</clipPath>
</defs>
</svg>
