<svg width="45" height="31" viewBox="0 0 45 31" fill="none" xmlns="http://www.w3.org/2000/svg">
<g clip-path="url(#clip0_117_2255)">
<path d="M16.774 22.0713L28.5044 10.3409L27.912 9.74854L16.1816 21.4789L16.774 22.0713Z" fill="white"/>
<path d="M29.4647 10.0444C30.1584 10.0444 30.7215 9.48134 30.7215 8.78757C30.7215 8.09381 30.1584 7.53075 29.4647 7.53075C28.7709 7.53075 28.2078 8.09381 28.2078 8.78757C28.2078 9.48134 28.7709 10.0444 29.4647 10.0444ZM29.4647 10.8823C28.3075 10.8823 27.37 9.94469 27.37 8.78757C27.37 7.63046 28.3075 6.69287 29.4647 6.69287C30.6218 6.69287 31.5594 7.63046 31.5594 8.78757C31.5594 9.94469 30.6218 10.8823 29.4647 10.8823ZM15.2207 24.2884C15.9144 24.2884 16.4775 23.7253 16.4775 23.0316C16.4775 22.3378 15.9144 21.7747 15.2207 21.7747C14.5269 21.7747 13.9639 22.3378 13.9639 23.0316C13.9639 23.7253 14.5269 24.2884 15.2207 24.2884ZM15.2207 25.1263C14.0636 25.1263 13.126 24.1887 13.126 23.0316C13.126 21.8744 14.0636 20.9369 15.2207 20.9369C16.3778 20.9369 17.3154 21.8744 17.3154 23.0316C17.3154 24.1887 16.3778 25.1263 15.2207 25.1263Z" fill="white"/>
</g>
<defs>
<clipPath id="clip0_117_2255">
<rect width="43.6854" height="29.9326" fill="white" transform="translate(0.5 0.943115)"/>
</clipPath>
</defs>
</svg>
