<svg width="16" height="16" viewBox="0 0 16 16" fill="none" xmlns="http://www.w3.org/2000/svg">
<path d="M13.0306 8.46935C12.9609 8.39943 12.8781 8.34395 12.787 8.3061C12.6958 8.26824 12.5981 8.24876 12.4993 8.24876C12.4006 8.24876 12.3029 8.26824 12.2117 8.3061C12.1206 8.34395 12.0378 8.39943 11.9681 8.46935L8.74997 11.6875V2.49998C8.74997 2.30106 8.67095 2.1103 8.5303 1.96965C8.38965 1.82899 8.19888 1.74998 7.99997 1.74998C7.80106 1.74998 7.61029 1.82899 7.46964 1.96965C7.32899 2.1103 7.24997 2.30106 7.24997 2.49998V11.6875L4.0306 8.46935C3.8897 8.32845 3.69861 8.2493 3.49935 8.2493C3.30009 8.2493 3.10899 8.32845 2.9681 8.46935C2.8272 8.61025 2.74805 8.80134 2.74805 9.0006C2.74805 9.19986 2.8272 9.39095 2.9681 9.53185L7.4681 14.0318C7.53778 14.1018 7.62057 14.1572 7.71173 14.1951C7.8029 14.233 7.90064 14.2524 7.99935 14.2524C8.09806 14.2524 8.1958 14.233 8.28696 14.1951C8.37813 14.1572 8.46092 14.1018 8.5306 14.0318L13.0306 9.53185C13.1005 9.46217 13.156 9.37938 13.1938 9.28821C13.2317 9.19705 13.2512 9.09931 13.2512 9.0006C13.2512 8.90189 13.2317 8.80415 13.1938 8.71299C13.156 8.62182 13.1005 8.53903 13.0306 8.46935Z" fill="#F8285A"/>
</svg>
