<svg width="45" height="31" viewBox="0 0 45 31" fill="none" xmlns="http://www.w3.org/2000/svg">
<g clip-path="url(#clip0_375_7359)">
<path d="M12.1113 23.1808L12.8311 22.4653L13.0162 22.2742C13.1671 22.115 13.3346 21.9315 13.5165 21.7254C14.0351 21.1355 14.5538 20.487 15.0372 19.8C15.86 18.6303 16.4934 17.474 16.8613 16.3806C17.8952 13.3081 21.8525 12.4291 24.3377 15.3223C27.0616 18.4937 24.3067 23.1817 19.8307 23.1817H12.113L12.1113 23.1808ZM19.8291 22.3429C23.6364 22.3429 25.9221 18.4535 23.7009 15.8678C21.6481 13.4773 18.4851 14.1795 17.6547 16.6479C17.2576 17.8276 16.5881 19.0517 15.7218 20.2817C15.2199 20.9956 14.6819 21.6668 14.1449 22.2784L14.0879 22.3438H19.8299L19.8291 22.3429Z" fill="white"/>
<path d="M25.8468 8.93848L24.6579 10.016C23.794 10.7994 23.7572 12.1115 24.5775 12.9318L26.1502 14.5045C26.9679 15.3223 28.2893 15.3039 29.0936 14.4668L33.8277 9.5451L33.2235 8.96445L28.4895 13.8862C28.0086 14.3855 27.2268 14.3964 26.7417 13.9121L25.169 12.3394C24.6881 11.8585 24.7098 11.0994 25.2201 10.6369L26.4091 9.55935L25.8468 8.93848Z" fill="white"/>
</g>
<defs>
<clipPath id="clip0_375_7359">
<rect width="43.6854" height="29.9326" fill="white" transform="translate(0.5 0.67334)"/>
</clipPath>
</defs>
</svg>
