<svg width="20" height="20" viewBox="0 0 20 20" fill="none" xmlns="http://www.w3.org/2000/svg">
<path d="M10.938 8.12502V5.00001C10.938 4.75137 11.0367 4.51292 11.2125 4.3371C11.3884 4.16129 11.6268 4.06251 11.8755 4.06251C12.1241 4.06251 12.3626 4.16129 12.5384 4.3371C12.7142 4.51292 12.813 4.75137 12.813 5.00001V5.85939L15.5872 3.08439C15.7633 2.90827 16.0022 2.80933 16.2512 2.80933C16.5003 2.80933 16.7392 2.90827 16.9153 3.08439C17.0914 3.26051 17.1904 3.49938 17.1904 3.74845C17.1904 3.99752 17.0914 4.23639 16.9153 4.41251L14.1411 7.18751H15.0005C15.2491 7.18751 15.4876 7.28629 15.6634 7.4621C15.8392 7.63792 15.938 7.87637 15.938 8.12502C15.938 8.37366 15.8392 8.61211 15.6634 8.78793C15.4876 8.96374 15.2491 9.06251 15.0005 9.06252H11.8755C11.6268 9.06251 11.3884 8.96374 11.2125 8.78793C11.0367 8.61211 10.938 8.37366 10.938 8.12502ZM8.12545 10.9375H5.00045C4.75181 10.9375 4.51336 11.0363 4.33754 11.2121C4.16173 11.3879 4.06295 11.6264 4.06295 11.875C4.06295 12.1237 4.16173 12.3621 4.33754 12.5379C4.51336 12.7137 4.75181 12.8125 5.00045 12.8125H5.85983L3.08717 15.5867C2.91105 15.7629 2.81211 16.0017 2.81211 16.2508C2.81211 16.4999 2.91105 16.7387 3.08717 16.9149C3.26329 17.091 3.50216 17.1899 3.75124 17.1899C4.00031 17.1899 4.23918 17.091 4.4153 16.9149L7.18795 14.1406V15C7.18795 15.2487 7.28673 15.4871 7.46254 15.6629C7.63836 15.8387 7.87681 15.9375 8.12545 15.9375C8.37409 15.9375 8.61255 15.8387 8.78837 15.6629C8.96418 15.4871 9.06295 15.2487 9.06295 15V11.875C9.06295 11.6264 8.96418 11.3879 8.78837 11.2121C8.61255 11.0363 8.37409 10.9375 8.12545 10.9375ZM14.1411 12.8125H15.0005C15.2491 12.8125 15.4876 12.7137 15.6634 12.5379C15.8392 12.3621 15.938 12.1237 15.938 11.875C15.938 11.6264 15.8392 11.3879 15.6634 11.2121C15.4876 11.0363 15.2491 10.9375 15.0005 10.9375H11.8755C11.6268 10.9375 11.3884 11.0363 11.2125 11.2121C11.0367 11.3879 10.938 11.6264 10.938 11.875V15C10.938 15.2487 11.0367 15.4871 11.2125 15.6629C11.3884 15.8387 11.6268 15.9375 11.8755 15.9375C12.1241 15.9375 12.3626 15.8387 12.5384 15.6629C12.7142 15.4871 12.813 15.2487 12.813 15V14.1406L15.5872 16.9156C15.7633 17.0918 16.0022 17.1907 16.2512 17.1907C16.5003 17.1907 16.7392 17.0918 16.9153 16.9156C17.0914 16.7395 17.1904 16.5006 17.1904 16.2516C17.1904 16.0025 17.0914 15.7636 16.9153 15.5875L14.1411 12.8125ZM8.12545 4.06251C7.87681 4.06251 7.63836 4.16129 7.46254 4.3371C7.28673 4.51292 7.18795 4.75137 7.18795 5.00001V5.85939L4.41374 3.08673C4.23762 2.91061 3.99874 2.81167 3.74967 2.81167C3.5006 2.81167 3.26173 2.91061 3.08561 3.08673C2.90949 3.26285 2.81055 3.50172 2.81055 3.7508C2.81055 3.99987 2.90949 4.23874 3.08561 4.41486L5.85983 7.18751H5.00045C4.75181 7.18751 4.51336 7.28629 4.33754 7.4621C4.16173 7.63792 4.06295 7.87637 4.06295 8.12502C4.06295 8.37366 4.16173 8.61211 4.33754 8.78793C4.51336 8.96374 4.75181 9.06252 5.00045 9.06252H8.12545C8.37409 9.06251 8.61255 8.96374 8.78837 8.78793C8.96418 8.61211 9.06295 8.37366 9.06295 8.12502V5.00001C9.06295 4.75137 8.96418 4.51292 8.78837 4.3371C8.61255 4.16129 8.37409 4.06251 8.12545 4.06251Z" fill="#99A1B7"/>
</svg>
