<svg width="12" height="12" viewBox="0 0 12 12" fill="none" xmlns="http://www.w3.org/2000/svg">
<path d="M10.8099 2.32173C10.7521 2.18838 10.6565 2.07493 10.5348 1.99551C10.4131 1.91608 10.2708 1.87418 10.1255 1.87501H1.87548C1.73032 1.8753 1.58836 1.9177 1.46683 1.99708C1.3453 2.07645 1.24941 2.18939 1.1908 2.32219C1.1322 2.45499 1.11338 2.60195 1.13665 2.74523C1.15992 2.88851 1.22426 3.02196 1.32188 3.12939L1.32563 3.13361L4.50048 6.52361V10.125C4.50044 10.2608 4.53725 10.394 4.60697 10.5104C4.6767 10.6269 4.77672 10.7222 4.89638 10.7863C5.01603 10.8504 5.15084 10.8808 5.28643 10.8743C5.42201 10.8678 5.55329 10.8246 5.66626 10.7494L7.16626 9.74907C7.26908 9.68058 7.3534 9.58775 7.4117 9.47882C7.47001 9.36989 7.5005 9.24825 7.50048 9.1247V6.52361L10.6758 3.13361L10.6795 3.12939C10.7782 3.02245 10.8432 2.88882 10.8663 2.74518C10.8895 2.60155 10.8699 2.45427 10.8099 2.32173ZM6.85266 6.12095C6.78779 6.18973 6.75129 6.28047 6.75048 6.37501V9.1247L5.25048 10.125V6.37501C5.2505 6.27979 5.21431 6.18812 5.14923 6.11861L1.87548 2.62501H10.1255L6.85266 6.12095Z" fill="#78829D"/>
</svg>
