<svg width="12" height="12" viewBox="0 0 12 12" fill="none" xmlns="http://www.w3.org/2000/svg">
<path d="M10.8094 2.32173C10.7516 2.18838 10.656 2.07493 10.5343 1.99551C10.4126 1.91608 10.2703 1.87418 10.125 1.87501H1.87499C1.72983 1.8753 1.58788 1.9177 1.46634 1.99708C1.34481 2.07645 1.24892 2.18939 1.19032 2.32219C1.13171 2.45499 1.1129 2.60195 1.13616 2.74523C1.15943 2.88851 1.22378 3.02196 1.32139 3.12939L1.32514 3.13361L4.49999 6.52361V10.125C4.49996 10.2608 4.53676 10.394 4.60649 10.5104C4.67621 10.6269 4.77623 10.7222 4.89589 10.7863C5.01555 10.8504 5.15035 10.8808 5.28594 10.8743C5.42152 10.8678 5.5528 10.8246 5.66577 10.7494L7.16577 9.74907C7.2686 9.68058 7.35291 9.58775 7.41122 9.47882C7.46952 9.36989 7.50002 9.24825 7.49999 9.1247V6.52361L10.6753 3.13361L10.6791 3.12939C10.7777 3.02245 10.8427 2.88882 10.8658 2.74518C10.889 2.60155 10.8694 2.45427 10.8094 2.32173ZM6.85217 6.12095C6.7873 6.18973 6.7508 6.28047 6.74999 6.37501V9.1247L5.24999 10.125V6.37501C5.25002 6.27979 5.21382 6.18812 5.14874 6.11861L1.87499 2.62501H10.125L6.85217 6.12095Z" fill="#78829D"/>
</svg>
