<svg width="12" height="12" viewBox="0 0 12 12" fill="none" xmlns="http://www.w3.org/2000/svg">
<path d="M10.7649 10.2348L8.4179 7.88823C9.09816 7.07153 9.43738 6.02401 9.36498 4.96358C9.29258 3.90314 8.81414 2.91145 8.02919 2.19478C7.24423 1.47812 6.2132 1.09166 5.15057 1.11581C4.08795 1.13996 3.07554 1.57286 2.32395 2.32444C1.57237 3.07603 1.13948 4.08844 1.11533 5.15106C1.09118 6.21369 1.47763 7.24472 2.19429 8.02967C2.91096 8.81463 3.90265 9.29307 4.96309 9.36547C6.02352 9.43787 7.07104 9.09865 7.88774 8.41839L10.2343 10.7654C10.2691 10.8003 10.3105 10.8279 10.356 10.8468C10.4016 10.8656 10.4503 10.8753 10.4996 10.8753C10.5489 10.8753 10.5977 10.8656 10.6432 10.8468C10.6887 10.8279 10.7301 10.8003 10.7649 10.7654C10.7998 10.7306 10.8274 10.6892 10.8463 10.6437C10.8651 10.5982 10.8748 10.5494 10.8748 10.5001C10.8748 10.4508 10.8651 10.402 10.8463 10.3565C10.8274 10.311 10.7998 10.2696 10.7649 10.2348ZM1.87462 5.25011C1.87462 4.58259 2.07256 3.93007 2.44341 3.37506C2.81426 2.82004 3.34136 2.38746 3.95806 2.13201C4.57476 1.87657 5.25336 1.80973 5.90805 1.93996C6.56273 2.07018 7.1641 2.39162 7.6361 2.86362C8.10811 3.33562 8.42954 3.93699 8.55977 4.59168C8.68999 5.24636 8.62316 5.92496 8.36771 6.54166C8.11227 7.15836 7.67968 7.68547 7.12467 8.05632C6.56965 8.42717 5.91713 8.62511 5.24962 8.62511C4.35482 8.62411 3.49695 8.26822 2.86423 7.6355C2.23151 7.00278 1.87561 6.14491 1.87462 5.25011Z" fill="#78829D"/>
</svg>
