<svg width="18" height="18" viewBox="0 0 18 18" fill="none" xmlns="http://www.w3.org/2000/svg">
<path d="M3.61558 7.5999C3.61558 6.4661 4.06598 5.37874 4.8677 4.57702C5.66941 3.7753 6.75678 3.3249 7.89058 3.3249C9.02438 3.3249 10.1117 3.7753 10.9135 4.57702C11.7152 5.37874 12.1656 6.4661 12.1656 7.5999C12.1656 8.73371 11.7152 9.82107 10.9135 10.6228C10.1117 11.4245 9.02438 11.8749 7.89058 11.8749C6.75678 11.8749 5.66941 11.4245 4.8677 10.6228C4.06598 9.82107 3.61558 8.73371 3.61558 7.5999ZM7.89058 1.8999C6.98464 1.89949 6.09164 2.11503 5.28563 2.52864C4.47962 2.94225 3.7838 3.54202 3.25587 4.27824C2.72793 5.01446 2.38308 5.86591 2.24991 6.76201C2.11674 7.65811 2.19908 8.57305 2.4901 9.43097C2.78113 10.2889 3.27245 11.0651 3.92335 11.6952C4.57425 12.3254 5.36597 12.7913 6.23288 13.0543C7.09979 13.3174 8.01692 13.37 8.90823 13.2079C9.79954 13.0457 10.6394 12.6734 11.3581 12.1219L14.7591 15.5229L15.7661 14.5159L12.3746 11.1244C13.0363 10.2834 13.4478 9.27308 13.5622 8.20909C13.6766 7.1451 13.4891 6.0704 13.0213 5.10796C12.5534 4.14553 11.8241 3.33423 10.9168 2.76689C10.0094 2.19956 8.9607 1.8991 7.89058 1.8999Z" fill="white"/>
</svg>
