<svg width="20" height="20" viewBox="0 0 20 20" fill="none" xmlns="http://www.w3.org/2000/svg">
<path d="M16.9137 8.1633L10.6637 14.4133C10.5766 14.5007 10.4731 14.57 10.3592 14.6174C10.2452 14.6647 10.1231 14.689 9.99967 14.689C9.87628 14.689 9.75411 14.6647 9.64016 14.6174C9.5262 14.57 9.42271 14.5007 9.33561 14.4133L3.08561 8.1633C2.90949 7.98718 2.81055 7.74831 2.81055 7.49923C2.81055 7.25016 2.90949 7.01129 3.08561 6.83517C3.26173 6.65905 3.5006 6.56011 3.74967 6.56011C3.99874 6.56011 4.23762 6.65905 4.41374 6.83517L10.0005 12.4219L15.5872 6.83439C15.7633 6.65827 16.0022 6.55933 16.2512 6.55933C16.5003 6.55933 16.7392 6.65827 16.9153 6.83439C17.0914 7.01051 17.1904 7.24938 17.1904 7.49845C17.1904 7.74752 17.0914 7.9864 16.9153 8.16252L16.9137 8.1633Z" fill="#99A1B7"/>
</svg>
