<svg width="36" height="36" viewBox="0 0 36 36" fill="none" xmlns="http://www.w3.org/2000/svg">
<g clip-path="url(#clip0_117_2395)">
<path d="M16.9394 22.05H15.0659V12.7461C16.2599 12.7038 17.0241 12.6826 17.3585 12.6826C18.6583 12.6826 19.6872 13.0785 20.445 13.8702C21.2029 14.6577 21.5818 15.7077 21.5818 17.0202C21.5818 20.3734 20.0343 22.05 16.9394 22.05ZM16.3361 13.8893V20.8434C16.6197 20.8857 16.9711 20.9069 17.3903 20.9069C18.2794 20.9069 18.978 20.5745 19.4861 19.9098C19.9941 19.2409 20.2482 18.3137 20.2482 17.1282C20.2482 14.9266 19.2596 13.8258 17.2823 13.8258C17.1638 13.8258 16.8484 13.8469 16.3361 13.8893Z" fill="white"/>
</g>
<defs>
<clipPath id="clip0_117_2395">
<rect width="34.3742" height="35.1" fill="white" transform="translate(0.899902)"/>
</clipPath>
</defs>
</svg>
