<svg width="27" height="27" viewBox="0 0 27 27" fill="none" xmlns="http://www.w3.org/2000/svg">
<path fill-rule="evenodd" clip-rule="evenodd" d="M10.4846 6.09279C10.3981 6.09279 10.3134 6.11686 10.2398 6.16229C10.1662 6.20773 10.1067 6.27274 10.0679 6.35006L9.26444 7.95707H5.24784C4.87701 7.95707 4.52137 8.10438 4.25915 8.3666C3.99693 8.62882 3.84962 8.98446 3.84962 9.35529V18.6767C3.84962 19.0475 3.99693 19.4032 4.25915 19.6654C4.52137 19.9276 4.87701 20.0749 5.24784 20.0749H20.1621C20.533 20.0749 20.8886 19.9276 21.1508 19.6654C21.413 19.4032 21.5603 19.0475 21.5603 18.6767V9.35529C21.5603 8.98446 21.413 8.62882 21.1508 8.3666C20.8886 8.10438 20.533 7.95707 20.1621 7.95707H16.1455L15.342 6.35006C15.3033 6.27274 15.2438 6.20773 15.1702 6.16229C15.0966 6.11686 15.0118 6.09279 14.9253 6.09279H10.4846ZM9.23368 5.93432C9.34973 5.70188 9.52824 5.50636 9.7492 5.3697C9.97015 5.23305 10.2248 5.16065 10.4846 5.16064H14.9253C15.1851 5.16065 15.4398 5.23305 15.6608 5.3697C15.8817 5.50636 16.0602 5.70188 16.1763 5.93432L16.7216 7.02493H20.1621C20.4682 7.02493 20.7712 7.08521 21.0539 7.20232C21.3366 7.31943 21.5935 7.49108 21.8099 7.70748C22.0263 7.92387 22.198 8.18077 22.3151 8.4635C22.4322 8.74623 22.4925 9.04926 22.4925 9.35529V18.6767C22.4925 18.9827 22.4322 19.2858 22.3151 19.5685C22.198 19.8512 22.0263 20.1081 21.8099 20.3245C21.5935 20.5409 21.3366 20.7126 21.0539 20.8297C20.7712 20.9468 20.4682 21.0071 20.1621 21.0071H5.24784C4.62979 21.0071 4.03705 20.7616 3.60003 20.3245C3.163 19.8875 2.91748 19.2948 2.91748 18.6767V9.35529C2.91748 8.73724 3.163 8.1445 3.60003 7.70748C4.03705 7.27045 4.62979 7.02493 5.24784 7.02493H8.68838L9.23368 5.93432Z" fill="white"/>
<path fill-rule="evenodd" clip-rule="evenodd" d="M12.7054 17.2787C13.1338 17.2787 13.5581 17.1943 13.9539 17.0303C14.3497 16.8664 14.7094 16.6261 15.0123 16.3231C15.3153 16.0202 15.5556 15.6605 15.7195 15.2647C15.8835 14.8689 15.9679 14.4446 15.9679 14.0162C15.9679 13.5877 15.8835 13.1635 15.7195 12.7677C15.5556 12.3718 15.3153 12.0122 15.0123 11.7092C14.7094 11.4063 14.3497 11.166 13.9539 11.002C13.5581 10.8381 13.1338 10.7537 12.7054 10.7537C11.8401 10.7537 11.0103 11.0974 10.3984 11.7092C9.78661 12.3211 9.44289 13.1509 9.44289 14.0162C9.44289 14.8814 9.78661 15.7113 10.3984 16.3231C11.0103 16.935 11.8401 17.2787 12.7054 17.2787ZM12.7054 18.2108C13.8179 18.2108 14.8848 17.7689 15.6714 16.9822C16.4581 16.1956 16.9 15.1287 16.9 14.0162C16.9 12.9037 16.4581 11.8368 15.6714 11.0501C14.8848 10.2635 13.8179 9.82153 12.7054 9.82153C11.5929 9.82153 10.526 10.2635 9.73933 11.0501C8.95268 11.8368 8.51074 12.9037 8.51074 14.0162C8.51074 15.1287 8.95268 16.1956 9.73933 16.9822C10.526 17.7689 11.5929 18.2108 12.7054 18.2108Z" fill="white"/>
</svg>
