<svg width="27" height="27" viewBox="0 0 27 27" fill="none" xmlns="http://www.w3.org/2000/svg">
<path d="M13.8584 16.3463C13.4912 16.3463 13.1276 16.2739 12.7883 16.1334C12.449 15.9929 12.1407 15.7869 11.8811 15.5272C11.6214 15.2675 11.4154 14.9593 11.2749 14.62C11.1343 14.2807 11.062 13.9171 11.062 13.5498C11.062 13.1826 11.1343 12.819 11.2749 12.4797C11.4154 12.1404 11.6214 11.8321 11.8811 11.5725C12.1407 11.3128 12.449 11.1068 12.7883 10.9663C13.1276 10.8257 13.4912 10.7534 13.8584 10.7534C14.6001 10.7534 15.3114 11.048 15.8358 11.5725C16.3602 12.0969 16.6549 12.8082 16.6549 13.5498C16.6549 14.2915 16.3602 15.0028 15.8358 15.5272C15.3114 16.0517 14.6001 16.3463 13.8584 16.3463ZM13.8584 15.4141C14.3529 15.4141 14.8271 15.2177 15.1767 14.8681C15.5263 14.5185 15.7227 14.0443 15.7227 13.5498C15.7227 13.0554 15.5263 12.5812 15.1767 12.2316C14.8271 11.882 14.3529 11.6856 13.8584 11.6856C13.364 11.6856 12.8898 11.882 12.5402 12.2316C12.1906 12.5812 11.9942 13.0554 11.9942 13.5498C11.9942 14.0443 12.1906 14.5185 12.5402 14.8681C12.8898 15.2177 13.364 15.4141 13.8584 15.4141Z" fill="white"/>
<path fill-rule="evenodd" clip-rule="evenodd" d="M5.47396 15.4142C5.35063 15.4145 5.22847 15.3903 5.11452 15.3432C5.00057 15.296 4.89707 15.2267 4.81 15.1394C4.72292 15.0521 4.65398 14.9484 4.60716 14.8343C4.56033 14.7202 4.53654 14.598 4.53716 14.4746V12.6253C4.53592 12.5022 4.55914 12.38 4.60545 12.266C4.65177 12.1519 4.72026 12.0482 4.80697 11.9608C4.89367 11.8734 4.99686 11.804 5.11056 11.7568C5.22425 11.7096 5.34619 11.6854 5.4693 11.6857H6.63634C6.80891 11.0111 7.07664 10.3645 7.43146 9.76544L6.57482 8.90321C6.24298 8.53315 6.25043 7.97107 6.60278 7.61779L7.92643 6.29414C8.01344 6.20776 8.11665 6.1394 8.23013 6.09297C8.3436 6.04653 8.46513 6.02294 8.58774 6.02355C8.71035 6.02416 8.83163 6.04895 8.94465 6.0965C9.05766 6.14405 9.16018 6.21343 9.24634 6.30067L10.075 7.12282C10.6744 6.76941 11.3205 6.50206 11.9943 6.32863V5.16066C11.9943 4.68154 12.4231 4.22852 12.9264 4.22852H14.7907C15.3099 4.22852 15.7229 4.63866 15.7229 5.16066V6.32863C16.397 6.50198 17.0434 6.76933 17.6431 7.12282L18.4708 6.30067C18.557 6.21349 18.6596 6.14419 18.7727 6.09671C18.8857 6.04924 19.007 6.02454 19.1296 6.02402C19.2522 6.0235 19.3737 6.04717 19.4872 6.09369C19.6006 6.1402 19.7038 6.20864 19.7907 6.29508L21.1144 7.61872C21.2827 7.78833 21.3794 8.01618 21.3845 8.2551C21.3895 8.49402 21.3025 8.72573 21.1414 8.90228C21.1414 8.90228 20.7686 9.28073 20.2857 9.76544C20.6405 10.3645 20.9083 11.0111 21.0808 11.6857H22.2479C22.7671 11.6857 23.18 12.1023 23.18 12.6253V14.4746C23.1812 14.5977 23.158 14.7199 23.1117 14.8339C23.0654 14.948 22.9969 15.0517 22.9102 15.1391C22.8235 15.2265 22.7203 15.2959 22.6066 15.3431C22.4929 15.3903 22.371 15.4145 22.2479 15.4142H21.0808C20.9083 16.0888 20.6405 16.7353 20.2857 17.3344L21.1079 18.1622C21.195 18.2484 21.2643 18.351 21.3118 18.464C21.3593 18.5771 21.384 18.6984 21.3845 18.821C21.385 18.9436 21.3614 19.0651 21.3148 19.1785C21.2683 19.292 21.1999 19.3951 21.1135 19.4821L19.7898 20.8057C19.7028 20.892 19.5997 20.9602 19.4863 21.0066C19.3729 21.0529 19.2515 21.0765 19.129 21.0759C19.0065 21.0753 18.8853 21.0505 18.7724 21.003C18.6594 20.9556 18.557 20.8863 18.4708 20.7992L17.6422 19.9771C17.0428 20.3305 16.3967 20.5978 15.7229 20.7713V21.9346C15.7229 22.4566 15.3034 22.8714 14.7833 22.8714H12.9339C12.8106 22.8719 12.6884 22.848 12.5744 22.8011C12.4604 22.7542 12.3567 22.6853 12.2694 22.5983C12.1821 22.5112 12.1128 22.4078 12.0656 22.2939C12.0184 22.18 11.9942 22.0579 11.9943 21.9346V20.7713C11.3201 20.5979 10.6737 20.3306 10.0741 19.9771L9.24634 20.7992C9.16012 20.8864 9.05755 20.9557 8.9445 21.0032C8.83146 21.0506 8.71015 21.0754 8.58754 21.0759C8.46494 21.0764 8.34343 21.0527 8.22998 21.0062C8.11654 20.9597 8.01338 20.8913 7.92643 20.8048L6.60278 19.4812C6.51654 19.3942 6.4483 19.291 6.40195 19.1776C6.3556 19.0642 6.33205 18.9428 6.33266 18.8203C6.33326 18.6978 6.35801 18.5766 6.40548 18.4637C6.45295 18.3508 6.52221 18.2483 6.60931 18.1622L7.43146 17.3344C7.07664 16.7353 6.80891 16.0888 6.63634 15.4142H5.47396ZM8.62274 9.64147L8.41114 9.9584C7.95007 10.6519 7.6284 11.4285 7.46408 12.2449L7.38765 12.6178H5.47396C5.47116 12.6178 5.4693 13.2367 5.4693 14.4746C5.4693 14.4793 6.10875 14.4821 7.38765 14.4821L7.46408 14.8549C7.63187 15.678 7.9488 16.4489 8.41114 17.1415L8.62274 17.4584L7.27113 18.8193C7.2674 18.8221 7.70551 19.264 8.58545 20.1449L9.95011 18.7858L10.267 18.9974C10.9617 19.457 11.7383 19.7785 12.5545 19.9444L12.9264 20.0218V21.9346C12.9264 21.9374 13.5454 21.9392 14.7833 21.9392C14.7879 21.9392 14.7907 21.2998 14.7907 20.0218L15.1627 19.9444C15.9789 19.7785 16.7555 19.457 17.4501 18.9974L17.7671 18.7858L19.128 20.1374C19.1308 20.1411 19.5726 19.703 20.4535 18.8231L19.0944 17.4584L19.306 17.1415C19.7671 16.448 20.0888 15.6714 20.2531 14.8549L20.3295 14.4821H22.2432C22.246 14.4821 22.2479 13.8631 22.2479 12.6253C22.2479 12.6206 21.6084 12.6178 20.3295 12.6178L20.2531 12.2449C20.0888 11.4285 19.7671 10.6519 19.306 9.9584L19.0944 9.64147L20.3771 8.35138L20.4526 8.27495L19.1327 6.95503L17.7671 8.3141L17.4501 8.1025C16.7555 7.64289 15.9789 7.32134 15.1627 7.15544L14.7907 7.07808V5.16066C14.7907 5.15786 14.1718 5.15786 12.9339 5.16066C12.9292 5.16066 12.9264 5.80011 12.9264 7.07808L12.5545 7.15544C11.7383 7.32134 10.9617 7.64289 10.267 8.1025L9.95011 8.3141L8.58918 6.96249C8.58638 6.95876 8.14455 7.39687 7.26461 8.27495L8.62274 9.64147Z" fill="white"/>
</svg>
