<svg width="36" height="36" viewBox="0 0 36 36" fill="none" xmlns="http://www.w3.org/2000/svg">
<path d="M20.8652 14.7537V20.3465H23.6617V14.7537H20.8652ZM20.3992 13.8215H24.1277C24.2514 13.8215 24.3699 13.8706 24.4573 13.958C24.5447 14.0454 24.5938 14.164 24.5938 14.2876V20.8126C24.5938 20.9362 24.5447 21.0548 24.4573 21.1422C24.3699 21.2296 24.2514 21.2787 24.1277 21.2787H20.3992C20.2756 21.2787 20.157 21.2296 20.0696 21.1422C19.9822 21.0548 19.9331 20.9362 19.9331 20.8126V14.2876C19.9331 14.164 19.9822 14.0454 20.0696 13.958C20.157 13.8706 20.2756 13.8215 20.3992 13.8215Z" fill="white"/>
<path d="M21.7979 11.0249H22.73V14.2874H21.7979V11.0249ZM21.7979 20.8124H22.73V24.0749H21.7979V20.8124Z" fill="white"/>
<path d="M13.4082 11.957V23.1428H16.2046V11.957H13.4082ZM12.9421 11.0249H16.6707C16.7943 11.0249 16.9129 11.074 17.0003 11.1614C17.0877 11.2488 17.1368 11.3674 17.1368 11.491V23.6088C17.1368 23.7324 17.0877 23.851 17.0003 23.9384C16.9129 24.0258 16.7943 24.0749 16.6707 24.0749H12.9421C12.8185 24.0749 12.7 24.0258 12.6126 23.9384C12.5252 23.851 12.4761 23.7324 12.4761 23.6088V11.491C12.4761 11.3674 12.5252 11.2488 12.6126 11.1614C12.7 11.074 12.8185 11.0249 12.9421 11.0249Z" fill="white"/>
<path d="M14.3403 8.22852H15.2725V11.491H14.3403V8.22852ZM14.3403 23.6089H15.2725V26.8714H14.3403V23.6089Z" fill="white"/>
</svg>
