<svg width="36" height="36" viewBox="0 0 36 36" fill="none" xmlns="http://www.w3.org/2000/svg">
<g clip-path="url(#clip0_117_2451)">
<path d="M11.3239 10.4447C10.5414 10.4447 9.90965 11.0794 9.90965 11.8657V23.2342C9.90965 24.0205 10.5414 24.6552 11.3239 24.6552H24.5239C25.3065 24.6552 25.9382 24.0205 25.9382 23.2342V11.8657C25.9382 11.0794 25.3065 10.4447 24.5239 10.4447H11.3239ZM8.9668 11.8657C8.9668 11.2376 9.21514 10.6352 9.65719 10.191C10.0992 9.74684 10.6988 9.49731 11.3239 9.49731H24.5239C25.1491 9.49731 25.7486 9.74684 26.1907 10.191C26.6327 10.6352 26.8811 11.2376 26.8811 11.8657V23.2342C26.8811 23.8623 26.6327 24.4647 26.1907 24.9089C25.7486 25.353 25.1491 25.6026 24.5239 25.6026H11.3239C10.6988 25.6026 10.0992 25.353 9.65719 24.9089C9.21514 24.4647 8.9668 23.8623 8.9668 23.2342V11.8657Z" fill="white"/>
</g>
<defs>
<clipPath id="clip0_117_2451">
<rect width="19.8" height="18" fill="white" transform="translate(8.02393 8.55005)"/>
</clipPath>
</defs>
</svg>
