<svg width="27" height="27" viewBox="0 0 27 27" fill="none" xmlns="http://www.w3.org/2000/svg">
<path d="M12.9291 6.09279C10.8277 6.09279 8.81242 6.92755 7.32653 8.41344C5.84064 9.89933 5.00587 11.9146 5.00587 14.016C5.00587 16.1174 5.84064 18.1327 7.32653 19.6186C8.81242 21.1045 10.8277 21.9392 12.9291 21.9392C15.0305 21.9392 17.0458 21.1045 18.5316 19.6186C20.0175 18.1327 20.8523 16.1174 20.8523 14.016C20.8523 11.9146 20.0175 9.89933 18.5316 8.41344C17.0458 6.92755 15.0305 6.09279 12.9291 6.09279ZM4.07373 14.016C4.07373 11.6674 5.0067 9.41502 6.6674 7.75432C8.32811 6.09362 10.5805 5.16064 12.9291 5.16064C15.2777 5.16064 17.5301 6.09362 19.1908 7.75432C20.8515 9.41502 21.7844 11.6674 21.7844 14.016C21.7844 16.3646 20.8515 18.617 19.1908 20.2777C17.5301 21.9384 15.2777 22.8714 12.9291 22.8714C10.5805 22.8714 8.32811 21.9384 6.6674 20.2777C5.0067 18.617 4.07373 16.3646 4.07373 14.016Z" fill="white"/>
<path d="M8.73438 13.5501H12.4629V9.82153H13.3951V13.5501H17.1237V14.4822H13.3951V18.2108H12.4629V14.4822H8.73438V13.5501Z" fill="white"/>
</svg>
