<svg width="27" height="27" viewBox="0 0 27 27" fill="none" xmlns="http://www.w3.org/2000/svg">
<path d="M5.90479 11.6856L10.3791 7.21136C10.5533 7.04056 10.7876 6.9449 11.0316 6.9449C11.2756 6.9449 11.5098 7.04056 11.6841 7.21136L14.2009 9.72814C14.3583 9.88606 14.5671 9.9823 14.7895 9.9994C15.0118 10.0165 15.2329 9.95333 15.4126 9.82136L21.7512 5.16064" stroke="white" stroke-width="0.929032"/>
<path fill-rule="evenodd" clip-rule="evenodd" d="M18.0226 11.6858C17.7754 11.6858 17.5383 11.784 17.3635 11.9588C17.1887 12.1336 17.0905 12.3707 17.0905 12.6179V16.3465H14.2941V15.4144C14.2941 15.1671 14.1959 14.93 14.0211 14.7552C13.8462 14.5804 13.6091 14.4822 13.3619 14.4822H10.5655C10.3183 14.4822 10.0812 14.5804 9.90637 14.7552C9.73156 14.93 9.63336 15.1671 9.63336 15.4144V17.2786H6.83693C6.58971 17.2786 6.35261 17.3769 6.1778 17.5517C6.00299 17.7265 5.90479 17.9636 5.90479 18.2108V21.9394H21.7512V12.6179C21.7512 12.3707 21.653 12.1336 21.4782 11.9588C21.3034 11.784 21.0663 11.6858 20.8191 11.6858H18.0226ZM18.0226 21.0072H20.8191V12.6179H18.0226V21.0072ZM17.0905 21.0072V17.2786H14.2941V21.0072H17.0905ZM13.3619 16.8126V21.0072H10.5655V15.4144H13.3619V16.8126ZM9.63336 21.0072V18.2108H6.83693V21.0072H9.63336Z" fill="white"/>
</svg>
