<svg width="27" height="27" viewBox="0 0 27 27" fill="none" xmlns="http://www.w3.org/2000/svg">
<path fill-rule="evenodd" clip-rule="evenodd" d="M8.33771 6.0928C7.74897 6.09264 7.17116 6.25179 6.66553 6.55339C6.15991 6.85498 5.74532 7.28778 5.46572 7.80589C5.18612 8.32401 5.05193 8.90812 5.07737 9.49631C5.10282 10.0845 5.28696 10.6548 5.61026 11.1469C6.00978 10.1219 6.61771 9.19104 7.39558 8.41317C8.17345 7.6353 9.10432 7.02737 10.1293 6.62785C9.59751 6.27762 8.97446 6.09155 8.33771 6.0928ZM4.14307 9.3553C4.14307 10.4645 4.57465 11.475 5.27842 12.2254C5.00883 13.3874 5.00509 14.5952 5.26748 15.7588C5.52986 16.9225 6.0516 18.0118 6.79377 18.9457C7.53593 19.8795 8.47938 20.6338 9.55372 21.1521C10.6281 21.6704 11.8056 21.9395 12.9984 21.9392H13.4645V21.0071H12.9984C11.6157 21.0071 10.2641 20.5971 9.11439 19.8289C7.96472 19.0607 7.06865 17.9688 6.53952 16.6914C6.01038 15.4139 5.87193 14.0083 6.14168 12.6521C6.41144 11.296 7.07727 10.0503 8.05499 9.07258C9.03271 8.09486 10.2784 7.42902 11.6345 7.15927C12.9907 6.88952 14.3963 7.02796 15.6738 7.5571C16.9512 8.08624 18.0431 8.9823 18.8113 10.132C19.5795 11.2817 19.9895 12.6333 19.9895 14.016V14.4821H20.9216V14.016C20.922 13.4134 20.8538 12.8126 20.7184 12.2254C21.4594 11.4302 21.8627 10.3785 21.8436 9.29178C21.8244 8.20509 21.3842 7.16825 20.6156 6.39972C19.8471 5.63119 18.8103 5.19097 17.7236 5.17179C16.6369 5.15262 15.5852 5.55599 14.79 6.29694C13.6116 6.02405 12.3864 6.02373 11.2078 6.296C10.611 5.73613 9.86358 5.36301 9.05745 5.22261C8.25132 5.08221 7.42173 5.18065 6.67084 5.50581C5.91996 5.83098 5.28058 6.36866 4.83144 7.05264C4.3823 7.73662 4.14302 8.53703 4.14307 9.3553ZM15.8676 6.62785C16.8925 7.02737 17.8234 7.6353 18.6013 8.41317C19.3791 9.19104 19.9871 10.1219 20.3866 11.1469C20.7996 10.5196 20.9836 9.76909 20.9074 9.02195C20.8313 8.27481 20.4997 7.57682 19.9687 7.04577C19.4376 6.51473 18.7396 6.18316 17.9925 6.10702C17.2453 6.03088 16.4948 6.21484 15.8676 6.62785ZM12.5324 13.5499V8.88923H13.4645V14.4821H9.73592V13.5499H12.5324ZM18.1252 19.1428H14.3966V20.0749H18.1252V23.8035H19.0574V20.0749H22.7859V19.1428H19.0574V15.4142H18.1252V19.1428Z" fill="white"/>
</svg>
