<svg width="27" height="27" viewBox="0 0 27 27" fill="none" xmlns="http://www.w3.org/2000/svg">
<path d="M8.93544 12.7631L11.4028 15.2296L10.7438 15.8895L7.15039 12.2971L10.7419 8.70459L11.4019 9.36455L8.93544 11.831H14.3353C15.0086 11.831 15.6753 11.9636 16.2973 12.2213C16.9193 12.4789 17.4845 12.8565 17.9605 13.3326C18.4366 13.8087 18.8142 14.3738 19.0719 14.9958C19.3295 15.6179 19.4621 16.2845 19.4621 16.9578V18.356H18.53V16.9578C18.53 16.4069 18.4215 15.8615 18.2107 15.3526C17.9999 14.8436 17.6909 14.3812 17.3014 13.9917C16.9119 13.6022 16.4495 13.2932 15.9406 13.0824C15.4317 12.8716 14.8862 12.7631 14.3353 12.7631H8.93544Z" fill="white"/>
</svg>
