<svg width="27" height="27" viewBox="0 0 27 27" fill="none" xmlns="http://www.w3.org/2000/svg">
<path fill-rule="evenodd" clip-rule="evenodd" d="M7.58352 7.02492H10.38C10.6272 7.02492 10.8643 7.12312 11.0391 7.29793C11.2139 7.47275 11.3121 7.70984 11.3121 7.95706V10.7535C11.3121 11.0007 11.2139 11.2378 11.0391 11.4126C10.8643 11.5874 10.6272 11.6856 10.38 11.6856H7.58352C7.3363 11.6856 7.09921 11.5874 6.9244 11.4126C6.74959 11.2378 6.65138 11.0007 6.65138 10.7535V7.95706C6.65138 7.70984 6.74959 7.47275 6.9244 7.29793C7.09921 7.12312 7.3363 7.02492 7.58352 7.02492ZM5.71924 7.95706C5.71924 6.9317 6.55817 6.09277 7.58352 6.09277H10.38C10.8744 6.09277 11.3486 6.28919 11.6982 6.63881C12.0478 6.98843 12.2442 7.46262 12.2442 7.95706V10.7535C12.2442 11.2479 12.0478 11.7221 11.6982 12.0717C11.3486 12.4214 10.8744 12.6178 10.38 12.6178H7.58352C7.08908 12.6178 6.6149 12.4214 6.26527 12.0717C5.91565 11.7221 5.71924 11.2479 5.71924 10.7535V7.95706ZM15.9728 7.02492H18.7692C19.0165 7.02492 19.2536 7.12312 19.4284 7.29793C19.6032 7.47275 19.7014 7.70984 19.7014 7.95706V10.7535C19.7014 11.0007 19.6032 11.2378 19.4284 11.4126C19.2536 11.5874 19.0165 11.6856 18.7692 11.6856H15.9728C15.7256 11.6856 15.4885 11.5874 15.3137 11.4126C15.1389 11.2378 15.0407 11.0007 15.0407 10.7535V7.95706C15.0407 7.70984 15.1389 7.47275 15.3137 7.29793C15.4885 7.12312 15.7256 7.02492 15.9728 7.02492ZM14.1085 7.95706C14.1085 6.9317 14.9475 6.09277 15.9728 6.09277H18.7692C19.2637 6.09277 19.7379 6.28919 20.0875 6.63881C20.4371 6.98843 20.6335 7.46262 20.6335 7.95706V10.7535C20.6335 11.2479 20.4371 11.7221 20.0875 12.0717C19.7379 12.4214 19.2637 12.6178 18.7692 12.6178H15.9728C15.4784 12.6178 15.0042 12.4214 14.6546 12.0717C14.3049 11.7221 14.1085 11.2479 14.1085 10.7535V7.95706ZM10.38 15.4142H7.58352C7.3363 15.4142 7.09921 15.5124 6.9244 15.6872C6.74959 15.862 6.65138 16.0991 6.65138 16.3463V19.1428C6.65138 19.39 6.74959 19.6271 6.9244 19.8019C7.09921 19.9767 7.3363 20.0749 7.58352 20.0749H10.38C10.6272 20.0749 10.8643 19.9767 11.0391 19.8019C11.2139 19.6271 11.3121 19.39 11.3121 19.1428V16.3463C11.3121 16.0991 11.2139 15.862 11.0391 15.6872C10.8643 15.5124 10.6272 15.4142 10.38 15.4142ZM7.58352 14.4821C7.08908 14.4821 6.6149 14.6785 6.26527 15.0281C5.91565 15.3777 5.71924 15.8519 5.71924 16.3463V19.1428C5.71924 20.1681 6.55817 21.0071 7.58352 21.0071H10.38C10.8744 21.0071 11.3486 20.8106 11.6982 20.461C12.0478 20.1114 12.2442 19.6372 12.2442 19.1428V16.3463C12.2442 15.8519 12.0478 15.3777 11.6982 15.0281C11.3486 14.6785 10.8744 14.4821 10.38 14.4821H7.58352ZM15.9728 15.4142H18.7692C19.0165 15.4142 19.2536 15.5124 19.4284 15.6872C19.6032 15.862 19.7014 16.0991 19.7014 16.3463V19.1428C19.7014 19.39 19.6032 19.6271 19.4284 19.8019C19.2536 19.9767 19.0165 20.0749 18.7692 20.0749H15.9728C15.7256 20.0749 15.4885 19.9767 15.3137 19.8019C15.1389 19.6271 15.0407 19.39 15.0407 19.1428V16.3463C15.0407 16.0991 15.1389 15.862 15.3137 15.6872C15.4885 15.5124 15.7256 15.4142 15.9728 15.4142ZM14.1085 16.3463C14.1085 15.321 14.9475 14.4821 15.9728 14.4821H18.7692C19.2637 14.4821 19.7379 14.6785 20.0875 15.0281C20.4371 15.3777 20.6335 15.8519 20.6335 16.3463V19.1428C20.6335 19.6372 20.4371 20.1114 20.0875 20.461C19.7379 20.8106 19.2637 21.0071 18.7692 21.0071H15.9728C15.4784 21.0071 15.0042 20.8106 14.6546 20.461C14.3049 20.1114 14.1085 19.6372 14.1085 19.1428V16.3463Z" fill="white"/>
</svg>
