<svg width="27" height="27" viewBox="0 0 27 27" fill="none" xmlns="http://www.w3.org/2000/svg">
<path d="M14.1344 10.7537V14.4822L15.0666 13.084L17.2385 9.82152L17.863 8.88938H15.0666V4.22866L14.1344 5.62688L11.9625 8.88938L11.338 9.82152H14.1344V10.7537ZM15.9987 4.22866V7.95724H17.863C18.0309 7.9581 18.1954 8.00428 18.3392 8.0909C18.4829 8.17751 18.6007 8.30135 18.6799 8.44934C18.7592 8.59732 18.797 8.76396 18.7894 8.93165C18.7818 9.09934 18.729 9.26186 18.6367 9.40206L14.9081 14.9949C14.797 15.1602 14.6359 15.2856 14.4484 15.3527C14.2609 15.4198 14.0568 15.4251 13.8661 15.3677C13.6754 15.3104 13.508 15.1935 13.3886 15.0342C13.2691 14.8748 13.2038 14.6814 13.2023 14.4822V10.7537H11.338C11.1686 10.7539 11.0024 10.708 10.8572 10.621C10.712 10.5339 10.5932 10.4089 10.5137 10.2594C10.4341 10.1099 10.3968 9.94152 10.4057 9.77241C10.4147 9.6033 10.4695 9.43982 10.5643 9.29952L14.2929 3.70666C14.4044 3.54071 14.5663 3.41501 14.7548 3.34813C14.9432 3.28125 15.1481 3.27673 15.3393 3.33523C15.5305 3.39374 15.6978 3.51218 15.8166 3.67305C15.9353 3.83393 15.9992 4.02872 15.9987 4.22866ZM4.81299 13.084C4.81266 11.4724 5.36918 9.91009 6.38835 8.66161C7.40752 7.41312 8.82675 6.5551 10.4058 6.23277V7.18356C9.27906 7.45058 8.25239 8.03492 7.44742 8.86737C6.64244 9.69982 6.09288 10.7455 5.86381 11.8806C5.63473 13.0157 5.73574 14.1927 6.15487 15.2722C6.57401 16.3517 7.29371 17.2885 8.22875 17.9716C9.16379 18.6547 10.275 19.0556 11.4308 19.1267C12.5866 19.1978 13.7386 18.9362 14.7504 18.3729C15.7621 17.8096 16.5913 16.9682 17.1396 15.9482C17.6879 14.9283 17.9325 13.7726 17.8443 12.618H18.7765C18.8925 14.4662 18.2802 16.2865 17.0707 17.6888L21.4517 22.0699L20.7992 22.7317L16.4088 18.3506C15.3978 19.2357 14.153 19.8107 12.8236 20.0066C11.4942 20.2026 10.1365 20.0113 8.91306 19.4556C7.68958 18.8999 6.65217 18.0034 5.92502 16.8734C5.19787 15.7434 4.81178 14.4278 4.81299 13.084Z" fill="white"/>
</svg>
