<svg width="37" height="36" viewBox="0 0 37 36" fill="none" xmlns="http://www.w3.org/2000/svg">
<path d="M13.534 10.0928C12.9159 10.0928 12.3232 10.3383 11.8862 10.7753C11.4491 11.2123 11.2036 11.8051 11.2036 12.4231V14.7535H12.1358V12.4231C12.1358 11.6495 12.7603 11.0249 13.534 11.0249H15.8643V10.0928H13.534ZM11.2036 20.3463V22.6767C11.2036 23.2948 11.4491 23.8875 11.8862 24.3245C12.3232 24.7615 12.9159 25.0071 13.534 25.0071H15.8643V24.0749H13.534C13.1631 24.0749 12.8075 23.9276 12.5453 23.6654C12.2831 23.4032 12.1358 23.0475 12.1358 22.6767V20.3463H11.2036ZM23.7875 11.0249H21.4572V10.0928H23.7875C24.4056 10.0928 24.9983 10.3383 25.4354 10.7753C25.8724 11.2123 26.1179 11.8051 26.1179 12.4231V14.7535H25.1858V12.4231C25.1858 11.6495 24.5612 11.0249 23.7875 11.0249ZM26.1179 22.6767V20.3463H25.1858V22.6767C25.1858 23.4504 24.5612 24.0749 23.7875 24.0749H21.4572V25.0071H23.7875C24.4056 25.0071 24.9983 24.7615 25.4354 24.3245C25.8724 23.8875 26.1179 23.2948 26.1179 22.6767Z" fill="white"/>
</svg>
