<svg width="17" height="16" viewBox="0 0 17 16" fill="none" xmlns="http://www.w3.org/2000/svg">
<path d="M13.2308 7.53065C13.1611 7.60057 13.0783 7.65605 12.9872 7.6939C12.896 7.73176 12.7983 7.75124 12.6995 7.75124C12.6008 7.75124 12.5031 7.73176 12.4119 7.6939C12.3208 7.65605 12.238 7.60057 12.1683 7.53065L8.95017 4.31253V13.5C8.95017 13.6989 8.87115 13.8897 8.7305 14.0304C8.58985 14.171 8.39908 14.25 8.20017 14.25C8.00126 14.25 7.81049 14.171 7.66984 14.0304C7.52919 13.8897 7.45017 13.6989 7.45017 13.5V4.31253L4.23079 7.53065C4.0899 7.67155 3.8988 7.7507 3.69954 7.7507C3.50029 7.7507 3.30919 7.67155 3.16829 7.53065C3.0274 7.38975 2.94824 7.19866 2.94824 6.9994C2.94824 6.80014 3.0274 6.60905 3.16829 6.46815L7.66829 1.96815C7.73797 1.89823 7.82077 1.84275 7.91193 1.8049C8.00309 1.76704 8.10083 1.74756 8.19954 1.74756C8.29825 1.74756 8.39599 1.76704 8.48716 1.8049C8.57832 1.84275 8.66112 1.89823 8.73079 1.96815L13.2308 6.46815C13.3007 6.53783 13.3562 6.62062 13.394 6.71179C13.4319 6.80295 13.4514 6.90069 13.4514 6.9994C13.4514 7.09811 13.4319 7.19585 13.394 7.28701C13.3562 7.37818 13.3007 7.46097 13.2308 7.53065Z" fill="#17C653"/>
</svg>
