<svg width="16" height="16" viewBox="0 0 16 16" fill="none" xmlns="http://www.w3.org/2000/svg">
<path d="M13.8235 12.2494C13.9185 12.0184 13.959 11.7769 13.9788 11.5243C14.0001 11.2532 14 10.9229 14 10.531V10.531L14 10.4849V6.51509L14 6.46917V6.46916C14 6.07717 14.0001 5.74682 13.9788 5.47571C13.959 5.22312 13.9185 4.98156 13.8235 4.75065L13.7797 4.65201C13.5857 4.25496 13.276 3.932 12.8952 3.72967C12.6454 3.59698 12.382 3.54567 12.1052 3.52209C11.8452 3.49994 11.5284 3.49997 11.1524 3.5L11.1084 3.50001H4.89164C4.49634 3.50001 4.16491 3.49908 3.89481 3.52209C3.61796 3.54567 3.35459 3.59698 3.10484 3.72967C2.72405 3.932 2.41431 4.25496 2.22027 4.65201C2.09301 4.91243 2.0438 5.18703 2.02118 5.47571C1.99912 5.75734 2 6.10291 2 6.51509V10.4849L2 10.5309C1.99997 10.9229 1.99994 11.2532 2.02118 11.5243C2.0438 11.8128 2.09315 12.087 2.22027 12.3473L2.29863 12.493C2.49305 12.8235 2.77175 13.0926 3.10484 13.2696L3.19944 13.316C3.42087 13.415 3.6526 13.4565 3.89481 13.4772C4.1627 13.5 4.49088 13.5 4.88191 13.5H4.88197H4.89164H11.1084H11.118H11.1181C11.5091 13.5 11.8373 13.5 12.1052 13.4772C12.382 13.4536 12.6454 13.4023 12.8952 13.2696L13.0342 13.1886C13.3514 12.9858 13.6099 12.6948 13.7797 12.3473L13.8235 12.2494Z" fill="#F6B100"/>
</svg>
